<?xml version="1.0" encoding="UTF-8" standalone="no"?>
<svg
   xmlns:dc="http://purl.org/dc/elements/1.1/"
   xmlns:cc="http://creativecommons.org/ns#"
   xmlns:rdf="http://www.w3.org/1999/02/22-rdf-syntax-ns#"
   xmlns:svg="http://www.w3.org/2000/svg"
   xmlns="http://www.w3.org/2000/svg"
   viewBox="0 0 105.33333 38.666668"
   height="38.666668"
   width="105.33333"
   xml:space="preserve"
   id="svg2"
   version="1.1"><metadata
     id="metadata8"><rdf:RDF><cc:Work
         rdf:about=""><dc:format>image/svg+xml</dc:format><dc:type
           rdf:resource="http://purl.org/dc/dcmitype/StillImage" /></cc:Work></rdf:RDF></metadata><defs
     id="defs6" /><g
     transform="matrix(1.3333333,0,0,-1.3333333,0,38.666667)"
     id="g10"><g
       transform="scale(0.1)"
       id="g12"><path
         id="path14"
         style="fill:#231f20;fill-opacity:1;fill-rule:nonzero;stroke:none"
         d="M 218.832,50.4805 V 12.6953 c 0,-0.5586 -0.18,-1.0547 -0.543,-1.4961 -0.359,-0.4453 -0.953,-0.8047 -1.785,-1.0781 -0.832,-0.27735 -1.949,-0.50001 -3.363,-0.66407 -1.414,-0.16797 -3.172,-0.25 -5.274,-0.25 -2.16,0 -3.933,0.08203 -5.316,0.25 -1.387,0.16406 -2.508,0.38672 -3.367,0.66407 -0.856,0.2734 -1.454,0.6328 -1.786,1.0781 -0.332,0.4414 -0.5,0.9375 -0.5,1.4961 v 37.7852 l -29.406,58.5465 c -1.054,2.051 -1.73,3.641 -2.035,4.778 -0.305,1.133 -0.141,1.992 0.496,2.574 0.637,0.582 1.813,0.941 3.524,1.082 1.711,0.137 4.082,0.203 7.117,0.203 2.539,0 4.566,-0.055 6.082,-0.164 1.519,-0.113 2.719,-0.316 3.601,-0.621 0.883,-0.309 1.532,-0.707 1.946,-1.207 0.414,-0.496 0.812,-1.133 1.199,-1.906 l 12.016,-26.4144 c 1.167,-2.5469 2.324,-5.2305 3.464,-8.0547 1.141,-2.8242 2.293,-5.7852 3.465,-8.8867 h 0.164 c 1.055,2.9882 2.133,5.8984 3.242,8.7187 1.11,2.8242 2.192,5.5117 3.243,8.0586 L 226.82,113.43 c 0.278,0.886 0.625,1.593 1.039,2.121 0.414,0.523 1.039,0.953 1.868,1.285 0.832,0.332 1.964,0.551 3.406,0.664 1.437,0.109 3.347,0.164 5.726,0.164 3.157,0 5.606,-0.066 7.348,-0.203 1.742,-0.141 2.934,-0.5 3.57,-1.082 0.637,-0.582 0.789,-1.453 0.457,-2.617 -0.332,-1.16 -0.996,-2.742 -1.992,-4.735 l -29.41,-58.5465" /><path
         id="path16"
         style="fill:#231f20;fill-opacity:1;fill-rule:nonzero;stroke:none"
         d="m 378.711,25.957 c 0,-1.3906 -0.039,-2.5742 -0.125,-3.5468 -0.082,-0.9727 -0.207,-1.8047 -0.375,-2.5 -0.164,-0.6954 -0.383,-1.293 -0.66,-1.793 -0.278,-0.5 -0.719,-1.0664 -1.328,-1.6953 -0.606,-0.6289 -1.785,-1.4336 -3.524,-2.418 -1.742,-0.9844 -3.875,-1.9297 -6.39,-2.832 -2.516,-0.9024 -5.391,-1.65237 -8.629,-2.25393 -3.235,-0.60156 -6.731,-0.90234 -10.492,-0.90234 -7.356,0 -13.993,1.13281 -19.911,3.40237 -5.918,2.2656 -10.953,5.6562 -15.101,10.164 -4.145,4.5039 -7.328,10.1328 -9.539,16.8789 -2.211,6.75 -3.317,14.6055 -3.317,23.5625 0,9.1289 1.215,17.2305 3.649,24.3086 2.433,7.0821 5.836,13.0274 10.203,17.84 4.371,4.812 9.609,8.461 15.719,10.949 6.113,2.488 12.843,3.734 20.199,3.734 2.988,0 5.863,-0.25 8.629,-0.75 2.765,-0.503 5.32,-1.156 7.672,-1.96 2.347,-0.809 4.464,-1.743 6.343,-2.797 1.883,-1.059 3.196,-1.961 3.942,-2.715 0.746,-0.75 1.258,-1.375 1.535,-1.871 0.277,-0.496 0.496,-1.129 0.664,-1.903 0.164,-0.773 0.289,-1.679 0.371,-2.73 0.082,-1.043 0.125,-2.34 0.125,-3.887 0,-1.6522 -0.055,-3.0584 -0.164,-4.2186 -0.113,-1.1562 -0.305,-2.0937 -0.582,-2.8086 -0.277,-0.7187 -0.609,-1.2421 -0.992,-1.5703 -0.387,-0.332 -0.828,-0.5 -1.328,-0.5 -0.828,0 -1.879,0.4844 -3.149,1.4493 -1.269,0.9648 -2.91,2.039 -4.926,3.2265 -2.015,1.1875 -4.417,2.2617 -7.207,3.2266 -2.793,0.9651 -6.117,1.4491 -9.984,1.4491 -4.25,0 -8.047,-0.871 -11.391,-2.6093 -3.339,-1.7422 -6.183,-4.2304 -8.531,-7.4648 -2.347,-3.2305 -4.129,-7.1446 -5.344,-11.7305 -1.214,-4.5859 -1.82,-9.7539 -1.82,-15.5039 0,-6.3008 0.645,-11.7578 1.945,-16.3711 1.297,-4.6172 3.149,-8.4141 5.551,-11.4023 2.403,-2.9844 5.301,-5.2071 8.699,-6.6719 3.395,-1.4649 7.223,-2.1953 11.477,-2.1953 3.863,0 7.207,0.4531 10.023,1.3633 2.817,0.9062 5.235,1.9101 7.25,3.0117 2.016,1.1015 3.672,2.0898 4.973,2.9726 1.297,0.8789 2.305,1.3203 3.024,1.3203 0.55,0 0.992,-0.1093 1.324,-0.332 0.332,-0.2226 0.609,-0.668 0.832,-1.3359 0.219,-0.668 0.383,-1.5977 0.492,-2.793 0.113,-1.1953 0.168,-2.7969 0.168,-4.7969" /><path
         id="path18"
         style="fill:#231f20;fill-opacity:1;fill-rule:nonzero;stroke:none"
         d="m 478.629,12.6953 c 0,-0.5586 -0.18,-1.0547 -0.539,-1.4961 -0.36,-0.4453 -0.949,-0.8047 -1.777,-1.0781 -0.829,-0.27735 -1.93,-0.50001 -3.309,-0.66407 -1.379,-0.16797 -3.117,-0.25 -5.211,-0.25 -2.152,0 -3.934,0.08203 -5.34,0.25 -1.406,0.16406 -2.512,0.38672 -3.308,0.66407 -0.801,0.2734 -1.379,0.6328 -1.739,1.0781 -0.359,0.4414 -0.539,0.9375 -0.539,1.4961 V 56.125 H 416.578 V 12.6953 c 0,-0.5586 -0.168,-1.0547 -0.496,-1.4961 -0.332,-0.4453 -0.91,-0.8047 -1.738,-1.0781 -0.828,-0.27735 -1.93,-0.50001 -3.309,-0.66407 -1.379,-0.16797 -3.144,-0.25 -5.297,-0.25 -2.093,0 -3.847,0.08203 -5.254,0.25 -1.406,0.16406 -2.523,0.38672 -3.351,0.66407 -0.824,0.2734 -1.418,0.6328 -1.778,1.0781 -0.359,0.4414 -0.539,0.9375 -0.539,1.4961 V 114.18 c 0,0.55 0.18,1.05 0.539,1.492 0.36,0.445 0.954,0.805 1.778,1.078 0.828,0.277 1.945,0.5 3.351,0.664 1.407,0.168 3.161,0.25 5.254,0.25 2.153,0 3.918,-0.082 5.297,-0.25 1.379,-0.164 2.481,-0.387 3.309,-0.664 0.828,-0.277 1.406,-0.637 1.738,-1.082 0.328,-0.441 0.496,-0.941 0.496,-1.496 V 74.6563 h 40.289 v 39.5157 c 0,0.555 0.18,1.055 0.539,1.496 0.36,0.445 0.938,0.805 1.739,1.082 0.796,0.277 1.902,0.5 3.308,0.664 1.406,0.168 3.188,0.25 5.34,0.25 2.094,0 3.832,-0.082 5.211,-0.25 1.379,-0.164 2.48,-0.387 3.309,-0.664 0.828,-0.273 1.417,-0.633 1.777,-1.078 0.359,-0.442 0.539,-0.942 0.539,-1.492 V 12.6953" /><path
         id="path20"
         style="fill:#231f20;fill-opacity:1;fill-rule:evenodd;stroke:none"
         d="m 590.23,17.8438 c 0.665,-1.9922 1.083,-3.5704 1.247,-4.7344 0.168,-1.1641 -0.055,-2.0352 -0.664,-2.6172 -0.61,-0.58204 -1.688,-0.94142 -3.239,-1.07814 -1.547,-0.14062 -3.679,-0.20703 -6.39,-0.20703 -2.821,0 -5.024,0.03906 -6.598,0.125 -1.578,0.08203 -2.781,0.2461 -3.609,0.4961 -0.832,0.24997 -1.414,0.59767 -1.747,1.03907 -0.332,0.4453 -0.609,1.0234 -0.828,1.7422 l -7.05,21.5859 h -40.524 l -6.754,-21.0039 c -0.222,-0.7734 -0.511,-1.4258 -0.871,-1.9492 -0.359,-0.5274 -0.937,-0.9453 -1.742,-1.24611 -0.805,-0.30468 -1.938,-0.51171 -3.406,-0.625 -1.465,-0.10937 -3.387,-0.16406 -5.766,-0.16406 -2.547,0 -4.539,0.08203 -5.976,0.25 -1.442,0.16406 -2.438,0.56637 -2.989,1.20317 -0.554,0.6367 -0.75,1.5351 -0.582,2.6992 0.164,1.1601 0.582,2.7109 1.246,4.6484 l 33.078,95.3402 c 0.332,0.941 0.719,1.703 1.161,2.281 0.445,0.582 1.152,1.027 2.117,1.328 0.969,0.309 2.312,0.5 4.027,0.586 1.715,0.082 3.984,0.121 6.805,0.121 3.265,0 5.867,-0.039 7.804,-0.121 1.938,-0.086 3.446,-0.277 4.524,-0.586 1.078,-0.301 1.855,-0.758 2.324,-1.367 0.473,-0.61 0.875,-1.442 1.207,-2.492 z m -49.3,78.8906 h -0.082 L 525.879,51.0273 h 30.16 L 540.93,96.7344" /><path
         id="path22"
         style="fill:#231f20;fill-opacity:1;fill-rule:evenodd;stroke:none"
         d="m 700.16,64.6836 c 0,-8.9063 -1.109,-16.8711 -3.32,-23.8984 -2.211,-7.0235 -5.508,-12.9844 -9.879,-17.8789 -4.367,-4.8946 -9.777,-8.629 -16.223,-11.2032 -6.445,-2.57029 -13.898,-3.85544 -22.363,-3.85544 -8.355,0 -15.645,1.08984 -21.867,3.27734 -6.227,2.1836 -11.414,5.5156 -15.563,9.9961 -4.148,4.4805 -7.261,10.1758 -9.34,17.0898 -2.07,6.918 -3.109,15.1016 -3.109,24.5625 0,8.6836 1.106,16.4961 3.32,23.4375 2.211,6.9414 5.504,12.8477 9.875,17.7151 4.372,4.867 9.778,8.601 16.223,11.199 6.449,2.602 13.93,3.902 22.453,3.902 8.133,0 15.309,-1.082 21.531,-3.238 6.227,-2.156 11.426,-5.473 15.606,-9.957 4.176,-4.48 7.328,-10.1367 9.457,-16.9687 2.133,-6.8281 3.199,-14.8906 3.199,-24.1797 z m -22.953,-1.1211 c 0,5.6445 -0.441,10.7773 -1.324,15.4023 -0.883,4.6211 -2.391,8.5782 -4.516,11.875 -2.125,3.293 -4.957,5.8399 -8.492,7.6368 -3.535,1.8004 -7.953,2.6994 -13.258,2.6994 -5.355,0 -9.832,-1.012 -13.422,-3.0315 -3.59,-2.0195 -6.488,-4.7187 -8.699,-8.0976 -2.211,-3.375 -3.769,-7.3203 -4.683,-11.8281 -0.911,-4.5157 -1.364,-9.2891 -1.364,-14.3243 0,-5.8672 0.442,-11.1406 1.324,-15.8203 0.883,-4.6758 2.375,-8.6758 4.473,-11.9961 2.098,-3.3203 4.918,-5.8554 8.453,-7.5976 3.535,-1.7422 7.981,-2.6133 13.34,-2.6133 5.356,0 9.828,0.9961 13.422,2.9883 3.59,1.9922 6.488,4.7031 8.699,8.1367 2.211,3.4336 3.77,7.4297 4.68,12 0.91,4.5664 1.367,9.4258 1.367,14.5703" /><path
         id="path24"
         style="fill:#231f20;fill-opacity:1;fill-rule:nonzero;stroke:none"
         d="m 782.496,41.9453 c 0,-5.6406 -1.055,-10.5898 -3.16,-14.8515 -2.106,-4.2579 -4.957,-7.8125 -8.555,-10.6602 -3.605,-2.8516 -7.812,-4.9922 -12.633,-6.4297 -4.82,-1.43749 -9.968,-2.15624 -15.453,-2.15624 -3.711,0 -7.16,0.30859 -10.343,0.92578 -3.188,0.61719 -6,1.36326 -8.434,2.23046 -2.438,0.8711 -4.477,1.7852 -6.109,2.7383 -1.633,0.9531 -2.813,1.7969 -3.532,2.5273 -0.718,0.7305 -1.23,1.7735 -1.539,3.1289 -0.3,1.3555 -0.453,3.3008 -0.453,5.8438 0,1.7148 0.055,3.1523 0.164,4.3125 0.11,1.1641 0.289,2.1016 0.543,2.8203 0.246,0.7188 0.582,1.2305 0.996,1.5352 0.418,0.3046 0.903,0.457 1.457,0.457 0.778,0 1.871,-0.4609 3.289,-1.375 1.414,-0.918 3.231,-1.9336 5.45,-3.0469 2.218,-1.1133 4.867,-2.125 7.949,-3.043 3.078,-0.9179 6.64,-1.375 10.691,-1.375 2.664,0 5.047,0.3165 7.156,0.9454 2.11,0.6328 3.899,1.5273 5.368,2.6796 1.472,1.1563 2.593,2.5821 3.371,4.2852 0.777,1.7031 1.164,3.6016 1.164,5.6875 0,2.4336 -0.664,4.5234 -1.992,6.2656 -1.332,1.7422 -3.063,3.2891 -5.2,4.6446 -2.132,1.3554 -4.558,2.6289 -7.273,3.8164 -2.719,1.1914 -5.516,2.4492 -8.398,3.7773 -2.883,1.3242 -5.684,2.832 -8.399,4.5195 -2.715,1.6875 -5.141,3.7071 -7.277,6.0586 -2.133,2.3516 -3.867,5.1328 -5.196,8.3399 -1.328,3.207 -1.996,7.0508 -1.996,11.5312 0,5.1446 0.957,9.6641 2.864,13.5669 1.91,3.898 4.48,7.132 7.714,9.707 3.235,2.57 7.051,4.492 11.446,5.765 4.398,1.274 9.058,1.91 13.98,1.91 2.543,0 5.086,-0.195 7.633,-0.582 2.543,-0.39 4.922,-0.914 7.133,-1.578 2.211,-0.664 4.176,-1.414 5.891,-2.246 1.71,-0.828 2.847,-1.523 3.402,-2.074 0.551,-0.555 0.926,-1.024 1.117,-1.41 0.195,-0.387 0.359,-0.899 0.5,-1.535 0.137,-0.637 0.234,-1.438 0.289,-2.407 0.055,-0.965 0.082,-2.172 0.082,-3.609 0,-1.602 -0.039,-2.957 -0.125,-4.0626 -0.082,-1.1054 -0.219,-2.0156 -0.414,-2.7343 -0.195,-0.7188 -0.469,-1.2422 -0.828,-1.5743 -0.363,-0.332 -0.848,-0.5 -1.457,-0.5 -0.606,0 -1.578,0.3868 -2.906,1.1641 -1.328,0.7774 -2.961,1.6211 -4.899,2.5352 -1.937,0.914 -4.183,1.7459 -6.726,2.4919 -2.551,0.746 -5.344,1.121 -8.391,1.121 -2.383,0 -4.457,-0.293 -6.23,-0.871 -1.774,-0.582 -3.254,-1.3865 -4.442,-2.4099 -1.191,-1.0234 -2.078,-2.2539 -2.656,-3.6953 -0.582,-1.4375 -0.875,-2.961 -0.875,-4.5664 0,-2.3789 0.652,-4.4375 1.953,-6.1836 1.305,-1.7383 3.051,-3.2891 5.242,-4.6445 2.188,-1.3555 4.668,-2.629 7.442,-3.8165 2.773,-1.1914 5.601,-2.4492 8.484,-3.7734 2.883,-1.3281 5.711,-2.8359 8.48,-4.5234 2.774,-1.6875 5.243,-3.7071 7.403,-6.0547 2.164,-2.3516 3.91,-5.1172 5.242,-8.3008 1.328,-3.1797 1.996,-6.9258 1.996,-11.2422" /><path
         id="path26"
         style="fill:#231f20;fill-opacity:1;fill-rule:nonzero;stroke:none"
         d="m 218.832,220.48 v -37.785 c 0,-0.558 -0.18,-1.054 -0.543,-1.496 -0.359,-0.445 -0.953,-0.804 -1.785,-1.078 -0.832,-0.277 -1.949,-0.5 -3.363,-0.664 -1.414,-0.168 -3.172,-0.25 -5.274,-0.25 -2.16,0 -3.933,0.082 -5.316,0.25 -1.387,0.164 -2.508,0.387 -3.367,0.664 -0.856,0.274 -1.454,0.633 -1.786,1.078 -0.332,0.442 -0.5,0.938 -0.5,1.496 v 37.785 l -29.406,58.547 c -1.054,2.051 -1.73,3.641 -2.035,4.778 -0.305,1.133 -0.141,1.992 0.496,2.574 0.637,0.582 1.813,0.941 3.524,1.082 1.711,0.137 4.082,0.203 7.117,0.203 2.539,0 4.566,-0.055 6.082,-0.164 1.519,-0.113 2.719,-0.316 3.601,-0.621 0.883,-0.309 1.532,-0.707 1.946,-1.207 0.414,-0.496 0.812,-1.133 1.199,-1.906 l 12.016,-26.414 c 1.167,-2.547 2.324,-5.231 3.464,-8.055 1.141,-2.824 2.293,-5.785 3.465,-8.887 h 0.164 c 1.055,2.988 2.133,5.899 3.242,8.719 1.11,2.824 2.192,5.512 3.243,8.059 l 11.804,26.242 c 0.278,0.886 0.625,1.593 1.039,2.121 0.414,0.523 1.039,0.953 1.868,1.285 0.832,0.332 1.964,0.551 3.406,0.664 1.437,0.109 3.347,0.164 5.726,0.164 3.157,0 5.606,-0.066 7.348,-0.203 1.742,-0.141 2.934,-0.5 3.57,-1.082 0.637,-0.582 0.789,-1.453 0.457,-2.617 -0.332,-1.16 -0.996,-2.742 -1.992,-4.735 l -29.41,-58.547" /><path
         id="path28"
         style="fill:#231f20;fill-opacity:1;fill-rule:nonzero;stroke:none"
         d="m 386.523,182.695 c 0,-0.558 -0.179,-1.054 -0.539,-1.496 -0.359,-0.445 -0.949,-0.804 -1.777,-1.078 -0.828,-0.277 -1.93,-0.5 -3.309,-0.664 -1.382,-0.168 -3.117,-0.25 -5.214,-0.25 -2.149,0 -3.93,0.082 -5.336,0.25 -1.407,0.164 -2.512,0.387 -3.309,0.664 -0.801,0.274 -1.379,0.633 -1.738,1.078 -0.36,0.442 -0.539,0.938 -0.539,1.496 v 43.43 h -40.289 v -43.43 c 0,-0.558 -0.168,-1.054 -0.496,-1.496 -0.332,-0.445 -0.911,-0.804 -1.739,-1.078 -0.828,-0.277 -1.929,-0.5 -3.308,-0.664 -1.383,-0.168 -3.145,-0.25 -5.297,-0.25 -2.094,0 -3.848,0.082 -5.254,0.25 -1.406,0.164 -2.524,0.387 -3.352,0.664 -0.824,0.274 -1.418,0.633 -1.777,1.078 -0.359,0.442 -0.539,0.938 -0.539,1.496 V 284.18 c 0,0.55 0.18,1.05 0.539,1.492 0.359,0.445 0.953,0.805 1.777,1.078 0.828,0.277 1.946,0.5 3.352,0.664 1.406,0.168 3.16,0.25 5.254,0.25 2.152,0 3.914,-0.082 5.297,-0.25 1.379,-0.164 2.48,-0.387 3.308,-0.664 0.828,-0.277 1.407,-0.637 1.739,-1.082 0.328,-0.441 0.496,-0.941 0.496,-1.496 v -39.516 h 40.289 v 39.516 c 0,0.555 0.179,1.055 0.539,1.496 0.359,0.445 0.937,0.805 1.738,1.082 0.797,0.277 1.902,0.5 3.309,0.664 1.406,0.168 3.187,0.25 5.336,0.25 2.097,0 3.832,-0.082 5.214,-0.25 1.379,-0.164 2.481,-0.387 3.309,-0.664 0.828,-0.273 1.418,-0.633 1.777,-1.078 0.36,-0.442 0.539,-0.942 0.539,-1.492 V 182.695" /><path
         id="path30"
         style="fill:#231f20;fill-opacity:1;fill-rule:evenodd;stroke:none"
         d="m 506.426,234.684 c 0,-8.907 -1.106,-16.871 -3.321,-23.899 -2.21,-7.023 -5.503,-12.984 -9.875,-17.879 -4.371,-4.894 -9.781,-8.629 -16.226,-11.203 -6.441,-2.57 -13.899,-3.855 -22.363,-3.855 -8.356,0 -15.645,1.09 -21.868,3.277 -6.222,2.184 -11.41,5.516 -15.562,9.996 -4.148,4.481 -7.262,10.176 -9.336,17.09 -2.074,6.918 -3.109,15.102 -3.109,24.562 0,8.684 1.105,16.497 3.316,23.438 2.215,6.941 5.504,12.848 9.875,17.715 4.375,4.867 9.781,8.601 16.227,11.199 6.445,2.602 13.929,3.902 22.449,3.902 8.133,0 15.312,-1.082 21.535,-3.238 6.227,-2.156 11.426,-5.473 15.602,-9.957 4.175,-4.48 7.328,-10.137 9.46,-16.969 2.129,-6.828 3.196,-14.89 3.196,-24.179 z m -22.949,-1.121 c 0,5.644 -0.442,10.777 -1.329,15.402 -0.882,4.621 -2.386,8.578 -4.515,11.875 -2.125,3.293 -4.957,5.84 -8.492,7.637 -3.536,1.8 -7.953,2.699 -13.258,2.699 -5.356,0 -9.828,-1.012 -13.418,-3.031 -3.594,-2.02 -6.492,-4.719 -8.703,-8.098 -2.211,-3.375 -3.77,-7.32 -4.68,-11.828 -0.914,-4.516 -1.367,-9.289 -1.367,-14.324 0,-5.868 0.441,-11.141 1.324,-15.821 0.887,-4.676 2.375,-8.676 4.477,-11.996 2.097,-3.32 4.914,-5.855 8.449,-7.598 3.535,-1.742 7.98,-2.613 13.34,-2.613 5.355,0 9.832,0.996 13.422,2.988 3.589,1.993 6.492,4.704 8.699,8.137 2.211,3.434 3.773,7.43 4.683,12 0.911,4.567 1.368,9.426 1.368,14.571" /><path
         id="path32"
         style="fill:#231f20;fill-opacity:1;fill-rule:nonzero;stroke:none"
         d="m 612.277,219.766 c 0,-6.586 -0.968,-12.477 -2.902,-17.68 -1.937,-5.203 -4.789,-9.602 -8.551,-13.199 -3.761,-3.598 -8.41,-6.336 -13.941,-8.219 -5.535,-1.883 -11.895,-2.82 -19.086,-2.82 -6.754,0 -12.809,0.843 -18.176,2.527 -5.367,1.691 -9.906,4.25 -13.613,7.68 -3.707,3.433 -6.543,7.707 -8.504,12.828 -1.965,5.117 -2.949,11.109 -2.949,17.969 v 65.328 c 0,0.55 0.168,1.05 0.5,1.492 0.328,0.445 0.922,0.805 1.777,1.078 0.856,0.277 1.973,0.5 3.348,0.664 1.383,0.168 3.148,0.25 5.3,0.25 2.094,0 3.833,-0.082 5.211,-0.25 1.379,-0.164 2.481,-0.387 3.309,-0.664 0.828,-0.273 1.418,-0.633 1.777,-1.078 0.36,-0.442 0.539,-0.942 0.539,-1.496 v -63.473 c 0,-4.265 0.528,-7.961 1.579,-11.09 1.054,-3.129 2.562,-5.718 4.531,-7.769 1.965,-2.051 4.32,-3.586 7.062,-4.614 2.739,-1.023 5.801,-1.535 9.184,-1.535 3.43,0 6.504,0.528 9.219,1.578 2.714,1.055 5.015,2.594 6.898,4.614 1.883,2.023 3.336,4.511 4.363,7.476 1.024,2.961 1.536,6.325 1.536,10.094 v 64.719 c 0,0.554 0.167,1.054 0.5,1.496 0.332,0.445 0.91,0.805 1.742,1.078 0.828,0.277 1.953,0.5 3.363,0.664 1.41,0.168 3.168,0.25 5.273,0.25 2.102,0 3.832,-0.082 5.188,-0.25 1.359,-0.164 2.449,-0.387 3.281,-0.664 0.832,-0.273 1.414,-0.633 1.746,-1.078 0.332,-0.442 0.496,-0.942 0.496,-1.492 v -64.414" /><path
         id="path34"
         style="fill:#231f20;fill-opacity:1;fill-rule:nonzero;stroke:none"
         d="m 699.688,211.945 c 0,-5.64 -1.051,-10.59 -3.157,-14.851 -2.105,-4.258 -4.957,-7.813 -8.558,-10.66 -3.602,-2.852 -7.813,-4.993 -12.633,-6.43 -4.817,-1.438 -9.969,-2.156 -15.453,-2.156 -3.711,0 -7.16,0.308 -10.344,0.925 -3.184,0.618 -5.996,1.364 -8.434,2.231 -2.437,0.871 -4.472,1.785 -6.109,2.738 -1.633,0.953 -2.809,1.797 -3.531,2.528 -0.719,0.73 -1.231,1.773 -1.535,3.128 -0.305,1.356 -0.457,3.301 -0.457,5.844 0,1.715 0.054,3.153 0.164,4.313 0.113,1.164 0.293,2.101 0.543,2.82 0.25,0.719 0.582,1.23 0.996,1.535 0.418,0.305 0.902,0.457 1.457,0.457 0.777,0 1.875,-0.461 3.289,-1.375 1.414,-0.918 3.23,-1.933 5.449,-3.047 2.219,-1.113 4.871,-2.125 7.949,-3.043 3.078,-0.918 6.645,-1.375 10.696,-1.375 2.66,0 5.043,0.317 7.152,0.946 2.109,0.632 3.898,1.527 5.371,2.679 1.469,1.157 2.594,2.582 3.367,4.286 0.778,1.703 1.168,3.601 1.168,5.687 0,2.434 -0.668,4.523 -1.996,6.266 -1.328,1.742 -3.062,3.289 -5.195,4.644 -2.137,1.356 -4.563,2.629 -7.278,3.817 -2.714,1.191 -5.515,2.449 -8.398,3.777 -2.883,1.324 -5.684,2.832 -8.398,4.519 -2.715,1.688 -5.141,3.707 -7.274,6.059 -2.137,2.352 -3.867,5.133 -5.199,8.34 -1.328,3.207 -1.992,7.051 -1.992,11.531 0,5.145 0.953,9.664 2.859,13.567 1.91,3.898 4.481,7.132 7.715,9.707 3.238,2.57 7.055,4.492 11.449,5.765 4.395,1.274 9.055,1.91 13.977,1.91 2.547,0 5.09,-0.195 7.632,-0.582 2.543,-0.39 4.926,-0.914 7.137,-1.578 2.211,-0.664 4.176,-1.414 5.887,-2.246 1.715,-0.828 2.848,-1.523 3.402,-2.074 0.555,-0.555 0.926,-1.024 1.117,-1.41 0.196,-0.387 0.364,-0.899 0.5,-1.535 0.141,-0.637 0.239,-1.438 0.293,-2.407 0.055,-0.965 0.082,-2.172 0.082,-3.609 0,-1.602 -0.043,-2.957 -0.125,-4.063 -0.085,-1.105 -0.222,-2.015 -0.418,-2.734 -0.191,-0.719 -0.468,-1.242 -0.828,-1.574 -0.359,-0.332 -0.843,-0.5 -1.453,-0.5 -0.609,0 -1.578,0.387 -2.91,1.164 -1.328,0.777 -2.961,1.621 -4.898,2.535 -1.938,0.914 -4.18,1.746 -6.727,2.492 -2.547,0.746 -5.344,1.121 -8.391,1.121 -2.378,0 -4.457,-0.293 -6.23,-0.871 -1.77,-0.582 -3.25,-1.386 -4.441,-2.41 -1.192,-1.023 -2.075,-2.254 -2.657,-3.695 -0.582,-1.438 -0.875,-2.961 -0.875,-4.567 0,-2.379 0.653,-4.437 1.957,-6.183 1.301,-1.738 3.047,-3.289 5.239,-4.645 2.191,-1.355 4.672,-2.629 7.445,-3.816 2.769,-1.192 5.598,-2.449 8.48,-3.774 2.883,-1.328 5.711,-2.836 8.485,-4.523 2.769,-1.688 5.238,-3.707 7.402,-6.055 2.16,-2.351 3.906,-5.117 5.238,-8.3 1.332,-3.18 1.997,-6.926 1.997,-11.243" /><path
         id="path36"
         style="fill:#231f20;fill-opacity:1;fill-rule:nonzero;stroke:none"
         d="m 779.891,188.301 c 0,-1.613 -0.067,-2.961 -0.203,-4.043 -0.141,-1.086 -0.348,-1.957 -0.625,-2.625 -0.274,-0.668 -0.622,-1.153 -1.036,-1.457 -0.414,-0.309 -0.871,-0.461 -1.367,-0.461 h -53.883 c -1.824,0 -3.359,0.543 -4.601,1.621 -1.242,1.078 -1.863,2.836 -1.863,5.269 v 93.661 c 0,2.433 0.621,4.191 1.867,5.269 1.242,1.082 2.777,1.621 4.605,1.621 h 53.613 c 0.5,0 0.942,-0.14 1.329,-0.418 0.386,-0.277 0.718,-0.761 0.996,-1.457 0.277,-0.695 0.484,-1.586 0.621,-2.668 0.14,-1.082 0.207,-2.457 0.207,-4.125 0,-1.554 -0.067,-2.875 -0.207,-3.961 -0.137,-1.082 -0.344,-1.957 -0.621,-2.625 -0.278,-0.668 -0.61,-1.152 -0.996,-1.457 -0.387,-0.304 -0.829,-0.461 -1.329,-0.461 H 738.07 v -26.179 h 32.309 c 0.496,0 0.949,-0.149 1.363,-0.453 0.41,-0.305 0.758,-0.774 1.031,-1.411 0.278,-0.636 0.481,-1.492 0.622,-2.57 0.14,-1.078 0.207,-2.391 0.207,-3.937 0,-1.602 -0.067,-2.93 -0.207,-3.977 -0.141,-1.051 -0.344,-1.894 -0.622,-2.527 -0.273,-0.637 -0.621,-1.094 -1.031,-1.371 -0.414,-0.274 -0.867,-0.414 -1.363,-0.414 H 738.07 v -30.258 h 38.59 c 0.5,0 0.957,-0.153 1.367,-0.457 0.414,-0.309 0.762,-0.793 1.036,-1.461 0.277,-0.668 0.484,-1.543 0.625,-2.625 0.136,-1.086 0.203,-2.434 0.203,-4.043" /><path
         id="path38"
         style="fill:#231f20;fill-opacity:1;fill-rule:nonzero;stroke:none"
         d="m 110.566,261.973 c 1.606,8.961 4.278,25.691 16.293,25.691 h 11.125 c 9.102,0 10.426,-13.48 10.426,-19.973 l 0.055,-249.5113 c 0,-7.4258 -5.414,-8.97267 -11.668,-8.97267 -6.281,0 -11.563,1.59377 -11.563,8.97267 L 125.18,228.84 C 114.543,169.469 85.1211,17.3203 85.1211,17.3203 83.8203,11.0156 79.4727,9.28125 73.7617,9.28125 68.4609,9.28125 63.375,11.293 62.3945,17.3945 L 23.2969,228.477 c 1.082,-59.465 1.1367,-210.2973 1.1367,-210.2973 0,-7.4961 -5.5,-8.97267 -11.7695,-8.97267 -6.40238,0 -11.46097,1.54297 -11.46097,8.97267 L 1.14453,267.691 c 0,6.301 1.35156,19.532 10.21877,19.532 h 10.6094 c 13.7539,0 16.4961,-14.641 18.1289,-24.657 L 74.6719,80.5352 110.566,261.973" /></g></g></svg>