<?xml version="1.0" encoding="UTF-8" standalone="no"?>
<!-- Created with Inkscape (http://www.inkscape.org/) -->

<svg
   version="1.1"
   id="svg1"
   width="69.542976"
   height="69.542976"
   viewBox="0 0 69.542976 69.542976"
   sodipodi:docname="upload_denec3lyolwfg3r4uxccqb6wzg.pdf"
   xmlns:inkscape="http://www.inkscape.org/namespaces/inkscape"
   xmlns:sodipodi="http://sodipodi.sourceforge.net/DTD/sodipodi-0.dtd"
   xmlns="http://www.w3.org/2000/svg"
   xmlns:svg="http://www.w3.org/2000/svg">
  <defs
     id="defs1" />
  <sodipodi:namedview
     id="namedview1"
     pagecolor="#ffffff"
     bordercolor="#000000"
     borderopacity="0.25"
     inkscape:showpageshadow="2"
     inkscape:pageopacity="0.0"
     inkscape:pagecheckerboard="0"
     inkscape:deskcolor="#d1d1d1">
    <inkscape:page
       x="0"
       y="0"
       inkscape:label="1"
       id="page1"
       width="69.542976"
       height="69.542976"
       margin="0.21485333 0 0 0.59439999"
       bleed="0" />
  </sodipodi:namedview>
  <g
     id="g1"
     inkscape:groupmode="layer"
     inkscape:label="1">
    <g
       id="g2">
      <path
         id="path2"
         d="m 282.68262,421.00293 c 0,8.15234 6.6084,14.76074 14.76074,14.76074 8.15137,0 14.75977,-6.6084 14.75977,-14.76074 0,-8.15137 -6.6084,-14.76074 -14.75977,-14.76074 -8.15234,0 -14.76074,6.60937 -14.76074,14.76074 z"
         style="fill:#bdbcbc;fill-opacity:1;fill-rule:nonzero;stroke:none"
         transform="matrix(1.3333333,0,0,-1.3333333,-361.33333,596)" />
      <path
         id="path3"
         d="m 290.74756,434.71094 c 0,3.35449 2.71924,6.07422 6.07471,6.07422 3.35449,0 6.07421,-2.71973 6.07421,-6.07422 0,-3.35547 -2.71972,-6.0752 -6.07421,-6.0752 -3.35547,0 -6.07471,2.71973 -6.07471,6.0752 m -8.78662,-15.52735 c -3.19043,1.03614 -4.93653,4.46289 -3.8999,7.6543 1.03662,3.19043 4.46337,4.93652 7.65429,3.89941 3.19043,-1.03613 4.93653,-4.46289 3.8999,-7.65429 -1.03662,-3.19043 -4.46386,-4.93653 -7.65429,-3.89942 m 12.01904,-13.19921 c -1.97168,-2.71387 -5.77051,-3.31543 -8.48486,-1.34375 -2.71436,1.97167 -3.31592,5.7705 -1.34375,8.48437 1.97217,2.71484 5.77099,3.31641 8.48486,1.34375 2.71436,-1.97168 3.31592,-5.77051 1.34375,-8.48437 m 16.25049,7.35839 c 1.97266,-2.71484 1.37012,-6.51367 -1.34375,-8.48535 -2.71387,-1.97168 -6.5127,-1.37012 -8.48438,1.34375 -1.97265,2.71485 -1.37011,6.51367 1.34375,8.48535 2.71387,1.97168 6.5127,1.37012 8.48438,-1.34375 m -1.95703,17.73731 c 3.19043,1.03613 6.61719,-0.70996 7.65429,-3.90137 1.03614,-3.19043 -0.70996,-6.61719 -3.90039,-7.65332 -3.19043,-1.03711 -6.61718,0.70899 -7.65429,3.90039 -1.03614,3.19043 0.70996,6.61719 3.90039,7.6543 M 272,421.00195 C 272,434.80762 283.19189,446 296.99805,446 c 13.80566,0 24.99804,-11.19238 24.99804,-24.99805 0,-13.80566 -11.19238,-24.99804 -24.99804,-24.99804 -13.80616,0 -24.99805,11.19238 -24.99805,24.99804 m 22.10645,0 c 0,1.59668 1.29443,2.8916 2.8916,2.8916 1.59668,0 2.8916,-1.29492 2.8916,-2.8916 0,-1.59668 -1.29492,-2.8916 -2.8916,-2.8916 -1.59717,0 -2.8916,1.29492 -2.8916,2.8916 z"
         style="fill:#231f20;fill-opacity:1;fill-rule:evenodd;stroke:none"
         transform="matrix(1.3333333,0,0,-1.3333333,-361.33333,596)" />
    </g>
  </g>
</svg>
